ply
format ascii 1.0
comment Created by Blender 2.82 (sub 7) - www.blender.org, source file: ''
element vertex 24
property float x
property float y
property float z
property float nx
property float ny
property float nz
property uchar red
property uchar green
property uchar blue
property uchar alpha
element face 12
property list uchar uint vertex_indices
end_header
-0.375000 0.000000 -0.001000 -1.000000 0.000000 -0.000000 248 248 248 255
-0.375000 -0.504000 -0.001000 -1.000000 0.000000 -0.000000 248 248 248 255
-0.375000 0.000000 0.000000 -1.000000 0.000000 -0.000000 248 248 248 255
-0.375000 -0.504000 0.000000 -1.000000 -0.000000 -0.000000 248 248 248 255
-0.025000 0.000000 0.000000 -0.000000 1.000000 0.000000 248 248 248 255
-0.375000 0.000000 -0.001000 -0.000000 1.000000 0.000000 248 248 248 255
-0.375000 0.000000 0.000000 -0.000000 1.000000 0.000000 248 248 248 255
-0.375000 -0.504000 0.000000 -0.000000 0.000000 1.000000 248 248 248 255
-0.025000 0.000000 0.000000 -0.000000 0.000000 1.000000 248 248 248 255
-0.375000 0.000000 0.000000 -0.000000 0.000000 1.000000 248 248 248 255
-0.025000 -0.504000 0.000000 1.000000 0.000000 0.000000 248 243 247 255
-0.025000 0.000000 -0.001000 1.000000 0.000000 0.000000 248 248 248 255
-0.025000 0.000000 0.000000 1.000000 0.000000 0.000000 248 248 248 255
-0.025000 0.000000 -0.001000 -0.000000 1.000000 0.000000 248 248 248 255
-0.025000 -0.504000 0.000000 0.000000 0.000000 1.000000 244 244 244 251
-0.025000 -0.504000 -0.001000 0.000000 0.000000 -1.000000 248 248 248 255
-0.375000 -0.504000 -0.001000 0.000000 0.000000 -1.000000 248 248 248 255
-0.375000 0.000000 -0.001000 0.000000 0.000000 -1.000000 248 248 248 255
-0.025000 0.000000 -0.001000 0.000000 0.000000 -1.000000 248 248 248 255
-0.025000 -0.504000 -0.001000 1.000000 0.000000 -0.000000 248 244 247 255
-0.375000 -0.504000 -0.001000 -0.000000 -1.000000 -0.000000 248 248 248 255
-0.025000 -0.504000 -0.001000 -0.000000 -1.000000 -0.000000 246 246 246 253
-0.375000 -0.504000 0.000000 -0.000000 -1.000000 -0.000000 248 248 248 255
-0.025000 -0.504000 0.000000 0.000000 -1.000000 0.000000 245 245 245 252
3 0 1 2
3 1 3 2
3 4 5 6
3 7 8 9
3 10 11 12
3 13 5 4
3 7 14 8
3 15 16 17
3 18 15 17
3 10 19 11
3 20 21 22
3 21 23 22
